<svg xmlns="http://www.w3.org/2000/svg" width="24" height="24" viewBox="0 0 24 24" fill="none"><g clip-path="url(#clip0_635_80052)"><path d="M21.3684 15.0291L17.0728 13.9819L6.79594 3.70409C6.68847 3.59667 6.56034 3.51213 6.4193 3.45557C6.27827 3.39902 6.12723 3.37162 5.97531 3.37504C5.8234 3.37846 5.67374 3.41262 5.53539 3.47545C5.39704 3.53829 5.27285 3.62851 5.17031 3.74066C3.045 6.06378 1.875 9.00003 1.875 12V18.75C1.875 19.2473 2.07254 19.7242 2.42417 20.0759C2.77581 20.4275 3.25272 20.625 3.75 20.625H6.75C6.99623 20.625 7.24005 20.5765 7.46753 20.4823C7.69502 20.3881 7.90172 20.25 8.07583 20.0759C8.24994 19.9017 8.38805 19.695 8.48227 19.4676C8.5765 19.2401 8.625 18.9963 8.625 18.75V14.8397L8.72531 14.9063C10.3674 16.0331 11.6423 17.6174 12.3919 19.4625C12.5323 19.8077 12.773 20.103 13.0828 20.3102C13.3926 20.5174 13.7573 20.627 14.13 20.625H22.125C22.6223 20.625 23.0992 20.4275 23.4508 20.0759C23.8025 19.7242 24 19.2473 24 18.75V18.3066C24.0022 17.5418 23.7422 16.7993 23.2633 16.2029C22.7845 15.6065 22.1157 15.1922 21.3684 15.0291ZM6.375 18.375H4.125V13.1878C4.89242 13.2726 5.64745 13.446 6.375 13.7044V18.375ZM21.75 18.375H14.3766C13.4494 16.2237 11.9326 14.3786 10.0013 13.0528C8.27642 11.8615 6.27549 11.1311 4.18875 10.9313C4.39601 9.20765 5.04834 7.56764 6.08156 6.17253L15.7041 15.796C15.8502 15.9415 16.0334 16.0443 16.2338 16.0932L20.8463 17.2182L20.8697 17.2238C21.1189 17.2765 21.3425 17.4134 21.5028 17.6114C21.6631 17.8094 21.7503 18.0565 21.75 18.3113V18.375Z" fill="#262626"></path></g><defs><clipPath id="clip0_635_80052"><rect width="24" height="24" fill="white"></rect></clipPath></defs></svg>