<svg version="1.1" id="Capa_1" xmlns="http://www.w3.org/2000/svg" xmlns:xlink="http://www.w3.org/1999/xlink" x="0px" y="0px" viewBox="0 0 112.2 112.2" style="enable-background:new 0 0 112.2 112.2;" xml:space="preserve"> <style type="text/css"> .li-st0 { fill: #007AB9; } .li-st1 { fill: #F1F2F2; } </style> <g> <circle class="li-st0" cx="56.1" cy="56.1" r="56.1"></circle> <g> <path class="li-st1" d="M81.8,59.7v19h-11V60.9c0-4.4-1.6-7.5-5.6-7.5c-3.1,0-4.9,2-5.7,4.1c-0.3,0.7-0.4,1.7-0.4,2.6v18.5h-11 c0,0,0.2-30,0-33.2h11v4.7l-0.1,0.1h0.1v-0.1c1.5-2.3,4.1-5.5,10-5.5C76.5,44.7,81.8,49.5,81.8,59.7L81.8,59.7z M36.6,29.6 c-3.8,0-6.3,2.5-6.3,5.7c0,3.2,2.4,5.7,6.1,5.7h0.2c3.9,0,6.3-2.6,6.3-5.7C42.7,32,40.4,29.6,36.6,29.6L36.6,29.6z M31.1,78.6h11 V45.5h-11V78.6z"> </path> </g> </g> </svg>