<svg xmlns="http://www.w3.org/2000/svg" width="24" height="24" viewBox="0 0 24 24" fill="none"><path d="M16 22C14.3333 22 12.9167 21.4167 11.75 20.25C10.5833 19.0833 10 17.6667 10 16C10 14.3333 10.5833 12.9167 11.75 11.75C12.9167 10.5833 14.3333 10 16 10C17.6667 10 19.0833 10.5833 20.25 11.75C21.4167 12.9167 22 14.3333 22 16C22 17.6667 21.4167 19.0833 20.25 20.25C19.0833 21.4167 17.6667 22 16 22ZM16 20C17.1 20 18.0417 19.6083 18.825 18.825C19.6083 18.0417 20 17.1 20 16C20 14.9 19.6083 13.9583 18.825 13.175C18.0417 12.3917 17.1 12 16 12C14.9 12 13.9583 12.3917 13.175 13.175C12.3917 13.9583 12 14.9 12 16C12 17.1 12.3917 18.0417 13.175 18.825C13.9583 19.6083 14.9 20 16 20ZM4 20C3.45 20 2.97933 19.8043 2.588 19.413C2.19667 19.0217 2.00067 18.5507 2 18V10.4C2 10.2667 2.01267 10.1333 2.038 10C2.06333 9.86667 2.10067 9.73333 2.15 9.6L4.15 5H4C3.71667 5 3.47933 4.904 3.288 4.712C3.09667 4.52 3.00067 4.28267 3 4V3C3 2.71667 3.096 2.47933 3.288 2.288C3.48 2.09667 3.71733 2.00067 4 2H11C11.2833 2 11.521 2.096 11.713 2.288C11.905 2.48 12.0007 2.71733 12 3V4C12 4.28333 11.904 4.521 11.712 4.713C11.52 4.905 11.2827 5.00067 11 5H10.85L12.5 8.8C12.1833 8.96667 11.8833 9.14167 11.6 9.325C11.3167 9.50833 11.05 9.71667 10.8 9.95L8.7 5H6.3L4 10.4V18H8.25C8.33333 18.35 8.44567 18.696 8.587 19.038C8.72833 19.38 8.89933 19.7007 9.1 20H4ZM16 9C15.3 9 14.7083 8.75833 14.225 8.275C13.7417 7.79167 13.5 7.2 13.5 6.5C13.5 5.8 13.7417 5.20833 14.225 4.725C14.7083 4.24167 15.3 4 16 4V9ZM16 9C16 8.3 16.2417 7.70833 16.725 7.225C17.2083 6.74167 17.8 6.5 18.5 6.5C19.2 6.5 19.7917 6.74167 20.275 7.225C20.7583 7.70833 21 8.3 21 9H16Z" fill="#262626"></path></svg>