<svg xmlns="http://www.w3.org/2000/svg" width="24" height="24" viewBox="0 0 24 24" fill="none"><mask id="mask0_9602_65660" maskUnits="userSpaceOnUse" x="0" y="0" width="24" height="24"><rect width="24" height="24" fill="#D9D9D9"></rect></mask><g mask="url(#mask0_9602_65660)"><path d="M5 22L1 11L6 8V2H10V8L15 11L11 22H5ZM17 22C16.7167 22 16.4792 21.9042 16.2875 21.7125C16.0958 21.5208 16 21.2833 16 21C16 20.7167 16.0958 20.4792 16.2875 20.2875C16.4792 20.0958 16.7167 20 17 20H20V18H17C16.7167 18 16.4792 17.9042 16.2875 17.7125C16.0958 17.5208 16 17.2833 16 17C16 16.7167 16.0958 16.4792 16.2875 16.2875C16.4792 16.0958 16.7167 16 17 16H20V14H17C16.7167 14 16.4792 13.9042 16.2875 13.7125C16.0958 13.5208 16 13.2833 16 13C16 12.7167 16.0958 12.4792 16.2875 12.2875C16.4792 12.0958 16.7167 12 17 12H20V10H17C16.7167 10 16.4792 9.90417 16.2875 9.7125C16.0958 9.52083 16 9.28333 16 9C16 8.71667 16.0958 8.47917 16.2875 8.2875C16.4792 8.09583 16.7167 8 17 8H20V6H17C16.7167 6 16.4792 5.90417 16.2875 5.7125C16.0958 5.52083 16 5.28333 16 5C16 4.71667 16.0958 4.47917 16.2875 4.2875C16.4792 4.09583 16.7167 4 17 4H21C21.55 4 22.0208 4.19583 22.4125 4.5875C22.8042 4.97917 23 5.45 23 6V20C23 20.55 22.8042 21.0208 22.4125 21.4125C22.0208 21.8042 21.55 22 21 22H17ZM6.4 20H9.6L12.55 11.85L9.45 10H6.55L3.45 11.85L6.4 20Z" fill="#1C1B1F"></path></g></svg>