<svg xmlns="http://www.w3.org/2000/svg" width="18" height="18" viewBox="0 0 18 18"> <g> <path fill="#030306" d="M17.9202199,15.6547663 L16.0114827,12.309058 C16.5573183,11.6853873 17.0746422,10.7629243 17.0746422,10.0729842 C17.0746422,9.73752395 16.9471658,9.53977043 16.8401854,9.43247376 C16.7299003,9.3229271 16.5854433,9.2677319 16.4282598,9.2358804 C16.4711153,8.89567403 16.5000488,8.56594421 16.5000488,8.24999561 C16.4999785,3.70092637 12.7990823,0 8.25000684,0 C3.70093141,0 0,3.70092637 0,8.24999561 C0,12.7990648 3.70093141,16.5 8.25000684,16.5 C8.77896747,16.5 9.31685777,16.4390304 9.85306058,16.3325423 L9.89619727,16.3611946 L10.879517,17.8333597 C10.9417787,17.9267345 11.042888,17.987168 11.1542629,17.9981719 C11.1667082,17.9992617 11.1791535,18 11.191634,18 C11.2905636,18 11.3858019,17.9608009 11.4569229,17.8904885 L12.2262818,17.1232751 C12.3405747,17.0090176 12.3691567,16.8343265 12.2965943,16.689694 L11.9258367,15.9514142 C12.4673129,15.5460282 13.1384805,14.9773067 13.740777,14.4668038 C13.9071363,14.3261791 14.0690307,14.188859 14.2222064,14.0599413 L16.8006346,17.1002127 C16.8709471,17.1826188 16.9720564,17.2305718 17.0797751,17.2327867 C17.2175172,17.2327867 17.291521,17.1899313 17.3640835,17.1108299 L17.7304465,16.7098385 C17.9941886,16.4472218 18.0784581,16.0528397 17.9202199,15.6547663 Z M15.7499907,8.24999561 C15.7499907,8.58018246 15.7170845,8.92710366 15.6642798,9.29191935 C15.0855731,9.45479794 14.445343,9.83216439 13.9568824,10.2586792 L11.9705554,9.12953295 C11.985532,8.83952961 11.9999812,8.54928018 11.9999812,8.25003076 C11.9999812,7.18486878 11.9091726,6.1769059 11.7490712,5.25004834 L15.1193934,5.25004834 C15.5226705,6.16962857 15.7499907,7.18321644 15.7499907,8.24999561 Z M14.735171,4.49999121 L11.5998681,4.49999121 C11.2585012,2.99741602 10.7184312,1.76687936 10.0467714,0.976638718 C12.0446648,1.47065338 13.7269958,2.76341648 14.735171,4.49999121 Z M9.15535006,9.47311431 L11.2601887,11.249978 L5.50476237,11.249978 C5.34371168,10.3522649 5.24998518,9.3459544 5.24998518,8.24999561 C5.24998518,7.15403681 5.34374684,6.14772627 5.50476237,5.25001318 L10.9952162,5.25001318 C11.1562668,6.14772627 11.2499582,7.15403681 11.2499582,8.24999561 C11.2499582,8.40700311 11.2393059,8.55715516 11.2344895,8.71110408 L10.5335446,8.31260876 C10.1869744,8.17968324 9.79206452,8.26353074 9.52899046,8.52537397 L9.13186569,8.92123258 C9.05786183,8.99520118 9.01757279,9.09736504 9.02196732,9.20213046 C9.02639701,9.30724745 9.07473682,9.40536835 9.15535006,9.47311431 Z M8.25000684,0.749986816 C9.24271328,0.749986816 10.2831619,2.16576139 10.8400366,4.49999121 L5.65997712,4.49999121 C6.21685179,2.16576139 7.2573004,0.749986816 8.25000684,0.749986816 Z M6.45324228,0.976638718 C5.78154736,1.76687936 5.24147737,2.99741602 4.90014554,4.49999121 L1.76480755,4.49999121 C2.77298274,2.76341648 4.45531377,1.47065338 6.45324228,0.976638718 Z M0.749987838,8.24999561 C0.749987838,7.18321644 0.977343172,6.16966373 1.38062028,5.25001318 L4.75090735,5.25001318 C4.59084104,6.1769059 4.49999734,7.18483362 4.49999734,8.24999561 C4.49999734,9.31515759 4.59080588,10.3231205 4.75090735,11.249978 L1.38062028,11.249978 C0.977378328,10.3303275 0.749987838,9.31673962 0.749987838,8.24999561 Z M1.76480755,11.9999648 L4.90011038,11.9999648 C5.24147737,13.50254 5.78154736,14.7330767 6.45320712,15.5233173 C4.45531377,15.0293027 2.77298274,13.7365396 1.76480755,11.9999648 Z M8.2548584,15.1047127 C8.26656542,15.2167906 8.32742086,15.3174779 8.4204794,15.3800911 L8.77299091,15.6144773 C8.5974207,15.7015592 8.42251846,15.7499692 8.25000684,15.7499692 C7.2573004,15.7499692 6.21685179,14.3341947 5.65997712,11.9999648 L12.1486217,11.9999648 L12.2019889,12.0449999 C12.0708561,12.2006363 11.9308992,12.3650618 11.7865829,12.5342685 C11.278048,13.1319236 10.7109429,13.7977113 10.3064353,14.3352845 L9.564217,13.9654063 C9.42130693,13.8925276 9.24693203,13.9214611 9.13190085,14.0353671 L8.36328021,14.8022289 C8.28414354,14.8816819 8.2438545,14.9926348 8.2548584,15.1047127 Z M17.1889351,16.1908981 L17.0980563,16.2904955 L14.5540812,13.2912162 C14.4199602,13.1351931 14.1869447,13.1143455 14.0287065,13.2447046 C13.7949879,13.437712 13.5311756,13.6610944 13.2556914,13.8947424 C12.5640277,14.481042 11.7792704,15.1457048 11.2333996,15.5276767 C11.0802239,15.6342351 11.0289661,15.8367699 11.1124973,16.0030234 L11.5044893,16.7837719 L11.2502394,17.0371777 L10.4786657,15.8821565 C10.4508219,15.8411292 10.4156306,15.8056215 10.3746032,15.7781645 L9.21838517,15.0094746 L9.47115846,14.756772 L10.2559158,15.1475329 C10.4222048,15.2306773 10.622982,15.1793844 10.7299624,15.0274042 C11.1110208,14.4850498 11.7733993,13.7068326 12.3580825,13.0201972 C12.5954926,12.7415142 12.8226369,12.4749249 13.0182814,12.2387105 C13.1494141,12.0801561 13.128918,11.8453831 12.9713478,11.7128443 L9.95181443,9.1636696 L10.0595331,9.05598622 C10.1137792,9.00177539 10.2053612,8.98567386 10.2134471,8.98859182 L13.8250114,11.046705 C13.9737222,11.1298494 14.1569213,11.1056619 14.2763822,10.9862715 C15.0860301,10.1791559 16.1331233,9.84991826 16.307463,9.96013289 C16.4232325,10.1370036 16.0913225,11.1847282 15.2838542,11.9896641 C15.1644285,12.1090545 15.1395379,12.293976 15.2230691,12.4408234 L17.2439195,15.9754961 C17.2709898,16.0458788 17.25415,16.1253318 17.1889351,16.1908981 Z"></path> </g> </svg>