<svg xmlns="http://www.w3.org/2000/svg" width="24" height="24" viewBox="0 0 24 24" fill="none"><path d="M18.8704 18.9091C18.8656 18.8995 18.8617 18.8892 18.8569 18.8797L15.3169 11.3394L16.8532 8.92956C16.858 8.9224 16.8627 8.91525 16.8667 8.9081C17.015 8.66105 17.0933 8.37836 17.0933 8.09025C17.0933 7.80214 17.015 7.51945 16.8667 7.2724C16.8556 7.25332 16.8429 7.23425 16.8302 7.21597L15.1841 4.86653V3.32144C15.1841 3.06848 15.0836 2.82589 14.9048 2.64703C14.7259 2.46816 14.4833 2.36768 14.2304 2.36768C13.9774 2.36768 13.7348 2.46816 13.556 2.64703C13.3771 2.82589 13.2766 3.06848 13.2766 3.32144V4.83156L12.9285 5.26632C12.7796 5.45255 12.5907 5.60289 12.3757 5.7062C12.1608 5.80952 11.9254 5.86316 11.687 5.86316C11.4485 5.86316 11.2132 5.80952 10.9983 5.7062C10.7833 5.60289 10.5944 5.45255 10.4455 5.26632L10.0974 4.83156V3.32144C10.0974 3.06848 9.99691 2.82589 9.81805 2.64703C9.63918 2.46816 9.39659 2.36768 9.14363 2.36768C8.89068 2.36768 8.64809 2.46816 8.46922 2.64703C8.29036 2.82589 8.18987 3.06848 8.18987 3.32144V4.86653L6.54543 7.21597C6.53271 7.23425 6.51999 7.25332 6.50887 7.2724C6.36064 7.51945 6.28233 7.80214 6.28233 8.09025C6.28233 8.37836 6.36064 8.66105 6.50887 8.9081C6.50887 8.91525 6.51761 8.9224 6.52238 8.92956L8.05714 11.3394L4.51709 18.8797C4.51233 18.8892 4.50835 18.8995 4.50358 18.9091C4.39994 19.1509 4.35792 19.4146 4.38128 19.6766C4.40465 19.9386 4.49267 20.1907 4.63745 20.4103C4.78223 20.6299 4.97926 20.8102 5.21085 20.9349C5.44245 21.0597 5.70138 21.125 5.96443 21.125H17.4096C17.6727 21.1251 17.9317 21.0599 18.1634 20.9352C18.3951 20.8105 18.5922 20.6303 18.7371 20.4107C18.882 20.191 18.9701 19.9389 18.9935 19.6768C19.0169 19.4147 18.9741 19.1509 18.8704 18.9091ZM11.687 7.77233C12.1483 7.77327 12.6053 7.6824 13.0311 7.505C13.457 7.32761 13.8433 7.06725 14.1676 6.73908L15.1213 8.0982L13.7074 10.3157H9.66661L8.25505 8.09979L9.20881 6.74067C9.53291 7.06827 9.9189 7.32817 10.3443 7.50528C10.7698 7.68238 11.2262 7.77316 11.687 7.77233ZM6.46595 19.2175L9.74927 12.2232H13.6247L16.9081 19.2175H6.46595Z" fill="#262626"></path></svg>