<svg version="1.1" id="Layer_1" xmlns="http://www.w3.org/2000/svg" xmlns:xlink="http://www.w3.org/1999/xlink" x="0px" y="0px" viewBox="0 0 128 128" style="enable-background:new 0 0 128 128;" xml:space="preserve"> <style type="text/css"> .ig-st0 { fill: url(#SVGID_1_); } .ig-st1 { fill: #FFFFFF; } </style> <g> <linearGradient id="SVGID_1_" gradientUnits="userSpaceOnUse" x1="-566.712" y1="2063.4302" x2="-493.288" y2="1958.5697" gradientTransform="matrix(1 0 0 1 594 -1947)"> <stop offset="0" style="stop-color:#FFB900"></stop> <stop offset="1" style="stop-color:#9100EB"></stop> </linearGradient> <circle class="ig-st0" cx="64" cy="64" r="64"></circle> </g> <g> <g> <path class="ig-st1" d="M78.4,95.5H49.6c-9.4,0-17.1-7.7-17.1-17.1V49.6c0-9.4,7.7-17.1,17.1-17.1h28.9c9.4,0,17.1,7.7,17.1,17.1 v28.9C95.5,87.9,87.9,95.5,78.4,95.5z M49.6,37.7c-6.5,0-11.8,5.3-11.8,11.8v28.9c0,6.5,5.3,11.8,11.8,11.8h28.9 c6.5,0,11.8-5.3,11.8-11.8V49.6c0-6.5-5.3-11.8-11.8-11.8H49.6z"> </path> </g> <g> <path class="ig-st1" d="M64,79.8c-8.7,0-15.8-7.1-15.8-15.8c0-8.7,7.1-15.8,15.8-15.8S79.8,55.3,79.8,64C79.8,72.7,72.7,79.8,64,79.8 z M64,53.5c-5.8,0-10.5,4.7-10.5,10.5c0,5.8,4.7,10.5,10.5,10.5S74.5,69.8,74.5,64C74.5,58.2,69.8,53.5,64,53.5z"> </path> </g> <g> <circle class="ig-st1" cx="80.7" cy="47.3" r="3.6"></circle> </g> </g> <image style="display:none;overflow:visible;opacity:0.93;" width="52" height="51" transform="matrix(3.3458 0 0 3.3458 -25.3649 -23.9275)"> </image> </svg>