<svg version="1.1" id="Layer_1" xmlns="http://www.w3.org/2000/svg" xmlns:xlink="http://www.w3.org/1999/xlink" x="0px" y="0px" viewBox="0 0 291.3 291.3" style="enable-background:new 0 0 291.3 291.3;" xml:space="preserve"> <style type="text/css"> .fb-st0 { fill: #3B5998; } .fb-st1 { fill: #FFFFFF; } </style> <g> <path class="fb-st0" d="M145.7,0c80.4,0,145.7,65.2,145.7,145.7c0,80.4-65.2,145.7-145.7,145.7S0,226.1,0,145.7C0,65.2,65.2,0,145.7,0 z"> </path> <path class="fb-st1" d="M156.8,115.3v13.3h19.7c2,0,3.6,1.6,3.6,3.6v15.1c0,2-1.6,3.6-3.6,3.6h-19.7V210h-22.2v-59.1h-19.7 c-2,0-3.6-1.6-3.6-3.6v-15.1c0-2,1.6-3.6,3.6-3.6h19.7v-15.5c0-17.6,14.2-31.8,31.8-31.8h10.2c2,0,3.6,1.6,3.6,3.6V100 c0,2-1.6,3.6-3.6,3.6h-8C162,103.6,156.8,108.8,156.8,115.3z"> </path> </g> </svg>