<svg xmlns="http://www.w3.org/2000/svg" width="36" height="36"> <defs> <linearGradient id="b" x1=".5" x2=".5" y2="1" gradientUnits="objectBoundingBox"> <stop offset="0" stop-color="#00aef0"></stop> <stop offset="1" stop-color="#009bd7"></stop> </linearGradient> <clipPath id="a"> <path d="M0 0h36v36H0z"></path> </clipPath> </defs> <g data-name="Telegram Logo" clip-path="url(#a)"> <path fill="rgba(255,255,255,0)" d="M0 0h36v36H0z"></path> <circle data-name="Ellipse 6" cx="18" cy="18" r="18" fill="url(#b)"></circle> <path data-name="Path 2" d="M8.894 16.653l17.046-6.577c.791-.286 1.482.193 1.226 1.389l-2.9 13.673c-.215.969-.791 1.205-1.6.748l-4.42-3.257s-2.509-1.538-1.821-2.344 5.933-6.052 5.933-6.052c.357-.314-.08-.491-.55-.178 0 0-7.118 5.484-8.753 5.359a17.729 17.729 0 01-4.364-1.361c-.947-.3-.968-.947.2-1.4z" fill="#fff"></path> </g> </svg>