<svg version="1.1" id="Capa_1" xmlns="http://www.w3.org/2000/svg" xmlns:xlink="http://www.w3.org/1999/xlink" x="0px" y="0px" viewBox="0 0 112.2 112.2" style="enable-background:new 0 0 112.2 112.2;" xml:space="preserve"> <style type="text/css"> .pt-st0 { fill: #CB2027; } .pt-st1 { fill: #F1F2F2; } </style> <g> <circle class="pt-st0" cx="56.1" cy="56.1" r="56.1"></circle> <g> <path class="pt-st1" d="M59.8,72.1c-3.4-0.3-4.9-2-7.6-3.6c-1.5,7.8-3.3,15.2-8.6,19.1c-1.7-11.7,2.4-20.6,4.3-29.9 c-3.2-5.4,0.4-16.4,7.2-13.7c8.4,3.3-7.3,20.2,3.2,22.3c11,2.2,15.5-19,8.6-26c-9.8-10-28.6-0.2-26.3,14.1 c0.6,3.5,4.2,4.6,1.4,9.4c-6.3-1.4-8.2-6.4-7.9-13c0.4-10.8,9.7-18.4,19.1-19.5c11.9-1.3,23,4.4,24.5,15.5 C79.5,59.5,72.4,73.1,59.8,72.1L59.8,72.1z"> </path> </g> </g> </svg>