<svg xmlns="http://www.w3.org/2000/svg" width="16" height="16" viewBox="0 0 16 16" fill="none"> <g clip-path="url(#clip0_910_222)"> <path d="M7.03583 4.15937L4.7805 1.55604C4.5205 1.25604 4.04383 1.25737 3.74183 1.56004L1.88716 3.41804C1.33516 3.9707 1.17716 4.79137 1.4965 5.44937C3.40424 9.39935 6.58986 12.5894 10.5372 14.5027C11.1945 14.822 12.0145 14.664 12.5665 14.1114L14.4385 12.236C14.7418 11.9327 14.7425 11.4534 14.4398 11.1934L11.8265 8.95003C11.5532 8.71537 11.1285 8.74603 10.8545 9.0207L9.94516 9.93137C9.89861 9.98016 9.83733 10.0123 9.77073 10.0229C9.70413 10.0335 9.6359 10.022 9.5765 9.99003C8.09013 9.1341 6.85716 7.89952 6.00316 6.41204C5.97118 6.35254 5.9596 6.28419 5.9702 6.21747C5.98079 6.15076 6.01298 6.08936 6.06183 6.0427L6.9685 5.13537C7.24316 4.85937 7.27316 4.43337 7.03583 4.15937Z" stroke="#95B561" stroke-linecap="round" stroke-linejoin="round"></path> </g> <defs> <clipPath id="clip0_910_222"> <rect width="16" height="16" fill="white"></rect> </clipPath> </defs> </svg>