<svg xmlns="http://www.w3.org/2000/svg" width="16" height="16" viewBox="0 0 16 16" fill="none"> <path d="M14 12.6665V8.17784C14 7.81614 13.9264 7.45823 13.7837 7.12586C13.641 6.7935 13.4322 6.49363 13.17 6.24451L8.91867 2.20651C8.67087 1.9711 8.34213 1.83984 8.00033 1.83984C7.65854 1.83984 7.3298 1.9711 7.082 2.20651L2.83 6.24451C2.56777 6.49363 2.35896 6.7935 2.21627 7.12586C2.07358 7.45823 2 7.81614 2 8.17784V12.6665C2 13.0201 2.14048 13.3593 2.39052 13.6093C2.64057 13.8594 2.97971 13.9998 3.33333 13.9998H12.6667C13.0203 13.9998 13.3594 13.8594 13.6095 13.6093C13.8595 13.3593 14 13.0201 14 12.6665Z" stroke="#95B561" stroke-linecap="round" stroke-linejoin="round"></path> <path d="M6 10.0013C6 9.64768 6.14048 9.30854 6.39052 9.05849C6.64057 8.80844 6.97971 8.66797 7.33333 8.66797H8.66667C9.02029 8.66797 9.35943 8.80844 9.60948 9.05849C9.85952 9.30854 10 9.64768 10 10.0013V14.0013H6V10.0013Z" stroke="#95B561" stroke-linecap="round" stroke-linejoin="round"></path> </svg>