<svg xmlns="http://www.w3.org/2000/svg" width="16" height="16" viewBox="0 0 16 16" fill="none"> <path d="M1.33301 4.0013C1.33301 3.64768 1.47348 3.30854 1.72353 3.05849C1.97358 2.80844 2.31272 2.66797 2.66634 2.66797H13.333C13.6866 2.66797 14.0258 2.80844 14.2758 3.05849C14.5259 3.30854 14.6663 3.64768 14.6663 4.0013V12.0013C14.6663 12.3549 14.5259 12.6941 14.2758 12.9441C14.0258 13.1942 13.6866 13.3346 13.333 13.3346H2.66634C2.31272 13.3346 1.97358 13.1942 1.72353 12.9441C1.47348 12.6941 1.33301 12.3549 1.33301 12.0013V4.0013Z" stroke="#95B561" stroke-linecap="round" stroke-linejoin="round"></path> <path d="M1.33301 5.33203L6.33367 9.3327C6.80653 9.71104 7.39409 9.91716 7.99967 9.91716C8.60526 9.91716 9.19282 9.71104 9.66567 9.3327L14.6663 5.33203" stroke="#95B561" stroke-linecap="round" stroke-linejoin="round"></path> </svg>