<svg id="Layer_1" data-name="Layer 1" xmlns="http://www.w3.org/2000/svg" viewBox="0 0 100 100"><defs><style>.cls-1{fill:#d6d6d6;}</style></defs><title>Artboard 1 copy 2DTR</title><path class="cls-1" d="M41.63,50a8.31,8.31,0,0,1,1.63-4.9,8.27,8.27,0,0,1,13.47,0A8.32,8.32,0,0,1,58.37,50a8.37,8.37,0,0,1-16.74,0Z"/><rect class="cls-1" x="60.2" y="31.63" width="8.17" height="8.16"/><path class="cls-1" d="M62,45.1h7.15V64.7a4.53,4.53,0,0,1-4.49,4.49H35.3a4.54,4.54,0,0,1-4.5-4.49V45.1H38A13.07,13.07,0,1,0,62,45.1Z"/><path class="cls-1" d="M50,1A49,49,0,1,0,99,50,49,49,0,0,0,50,1ZM73.88,64.7a9.15,9.15,0,0,1-9.18,9.19H35.3a9.15,9.15,0,0,1-9.19-9.19V35.3a9.15,9.15,0,0,1,9.19-9.19H64.7a9.15,9.15,0,0,1,9.18,9.19Z"/></svg>