<svg data-name="Layer 2" xmlns="http://www.w3.org/2000/svg" width="26.202" height="26.202" viewBox="0 0 26.202 26.202">
    <g data-name="05.instagram">
        <circle data-name="Ellipse 16" cx="2.07" cy="2.07" r="2.07" transform="translate(11.031 11.031)" style="fill:#f8f8f8"/>
        <path data-name="Path 154" d="M53.521 45.65h-5.3a2.586 2.586 0 0 0-2.586 2.586v5.294a2.586 2.586 0 0 0 2.586 2.586h5.3a2.586 2.586 0 0 0 2.586-2.586v-5.3a2.586 2.586 0 0 0-2.586-2.58zm-2.648 8.621a3.389 3.389 0 1 1 3.387-3.388 3.389 3.389 0 0 1-3.387 3.388zm3.408-5.94a.838.838 0 1 1 .836-.836.838.838 0 0 1-.836.836z" transform="translate(-37.773 -37.781)" style="fill:#f8f8f8"/>
        <path data-name="Path 155" d="M13.1 0a13.1 13.1 0 1 0 13.1 13.1A13.1 13.1 0 0 0 13.1 0zm6.55 15.749a3.906 3.906 0 0 1-3.9 3.9h-5.3a3.908 3.908 0 0 1-3.9-3.9v-5.3a3.908 3.908 0 0 1 3.9-3.9h5.3a3.908 3.908 0 0 1 3.9 3.9z" style="fill:#f8f8f8"/>
    </g>
</svg>
