<svg width="108" height="36" viewBox="0 0 108 36" fill="none" xmlns="http://www.w3.org/2000/svg">
<path d="M25.5448 35.9306C25.3615 35.9306 25.1816 35.9155 25.0048 35.8853C24.8283 35.8553 24.665 35.8119 24.515 35.7551C24.3649 35.6982 24.2351 35.6314 24.125 35.5545L24.38 34.8374C24.4833 34.9042 24.5982 34.9628 24.725 35.0129C24.8516 35.063 24.985 35.1032 25.1248 35.1332C25.2648 35.16 25.4048 35.1734 25.5448 35.1734C25.7647 35.1734 25.9182 35.1449 26.0048 35.0881C26.0947 35.028 26.1397 34.9543 26.1397 34.8674C26.1397 34.8141 26.1264 34.7688 26.0997 34.7322C26.073 34.6954 26.0281 34.6636 25.9647 34.6368C25.9047 34.6068 25.8231 34.5817 25.7198 34.5616L25.1348 34.4362C24.8149 34.3694 24.5766 34.2523 24.4201 34.0853C24.2634 33.9181 24.185 33.7025 24.185 33.4385C24.185 33.2045 24.2467 33.0022 24.3699 32.8316C24.4967 32.658 24.6716 32.5242 24.8949 32.4306C25.1216 32.3336 25.3816 32.2852 25.6748 32.2852C25.8381 32.2852 25.9948 32.3002 26.1447 32.3302C26.2981 32.3604 26.4397 32.4055 26.5697 32.4656C26.6997 32.5226 26.8096 32.5894 26.8995 32.6662L26.6446 33.3382C26.518 33.2445 26.3697 33.1727 26.1998 33.1226C26.0331 33.069 25.8548 33.0423 25.6648 33.0423C25.5414 33.0423 25.4365 33.0574 25.3499 33.0874C25.2632 33.1141 25.1966 33.1543 25.1499 33.2079C25.1065 33.2612 25.0849 33.3232 25.0849 33.3934C25.0849 33.4636 25.1132 33.5237 25.1699 33.5739C25.2299 33.6206 25.3382 33.6608 25.4949 33.6942L26.0747 33.8195C26.398 33.8897 26.6397 34.005 26.7996 34.1656C26.9597 34.326 27.0395 34.5348 27.0395 34.7923C27.0395 35.0195 26.9779 35.2201 26.8546 35.394C26.7312 35.5646 26.5581 35.6966 26.3346 35.7901C26.1114 35.8837 25.8481 35.9306 25.5448 35.9306ZM27.2197 35.8754L28.8694 32.3403H29.5942L31.2439 35.8754H30.3242L29.9091 34.9026L30.2592 35.1583H28.1994L28.5545 34.9026L28.1394 35.8754H27.2197ZM29.2243 33.303L28.6443 34.692L28.5045 34.4513H29.9593L29.8193 34.692L29.2343 33.303H29.2243ZM32.4876 35.8754L30.8828 32.3403H31.8627L33.0125 35.0179H32.7325L33.8823 32.3403H34.8272L33.2175 35.8754H32.4876ZM35.2204 35.8754V32.3403H37.71V33.0523H36.1002V33.7242H37.5951V34.4362H36.1002V35.1634H37.71V35.8754H35.2204ZM41.806 35.9306C41.5394 35.9306 41.296 35.8871 41.076 35.8002C40.8561 35.7133 40.6661 35.5895 40.5061 35.4292C40.3496 35.2654 40.2278 35.0714 40.1412 34.8475C40.0579 34.6235 40.0162 34.3761 40.0162 34.1053C40.0162 33.8312 40.0579 33.5821 40.1412 33.3582C40.2278 33.1342 40.3496 32.9421 40.5061 32.7815C40.6661 32.6212 40.8561 32.499 41.076 32.4155C41.296 32.3286 41.5394 32.2852 41.806 32.2852C42.0726 32.2852 42.3159 32.3286 42.5358 32.4155C42.7558 32.499 42.9442 32.6212 43.1007 32.7815C43.2607 32.9421 43.3823 33.1342 43.4657 33.3582C43.5524 33.5789 43.5957 33.8262 43.5957 34.1004C43.5957 34.3779 43.5524 34.6286 43.4657 34.8525C43.3823 35.0765 43.2607 35.2702 43.1007 35.4342C42.9442 35.5946 42.7558 35.7183 42.5358 35.8052C42.3159 35.8887 42.0726 35.9306 41.806 35.9306ZM41.806 35.1583C41.9825 35.1583 42.1325 35.1165 42.2559 35.033C42.3791 34.9495 42.4742 34.829 42.5408 34.672C42.6076 34.5149 42.6409 34.326 42.6409 34.1053C42.6409 33.8847 42.6076 33.6958 42.5408 33.5387C42.4776 33.3817 42.3825 33.263 42.2559 33.1827C42.1325 33.0992 41.9825 33.0574 41.806 33.0574C41.6326 33.0574 41.4826 33.0992 41.356 33.1827C41.2327 33.263 41.1377 33.3817 41.071 33.5387C41.0044 33.6958 40.9711 33.8847 40.9711 34.1053C40.9711 34.326 41.0027 34.5149 41.0661 34.672C41.1327 34.829 41.2294 34.9495 41.356 35.033C41.4826 35.1165 41.6326 35.1583 41.806 35.1583ZM44.331 35.8754V32.3403H45.006L46.7657 34.5416H46.6257V32.3403H47.4756V35.8754H46.8056L45.046 33.669H45.186V35.8754H44.331ZM49.9346 35.8754V32.3403H52.4241V33.0523H50.8144V33.7242H52.3091V34.4362H50.8144V35.1634H52.4241V35.8754H49.9346ZM54.3771 35.8754L52.7725 32.3403H53.7522L54.9021 35.0179H54.6222L55.7719 32.3403H56.7169L55.1071 35.8754H54.3771ZM57.1099 35.8754V32.3403H59.5996V33.0523H57.99V33.7242H59.4847V34.4362H57.99V35.1634H59.5996V35.8754H57.1099ZM60.3731 35.8754V32.3403H62.0679C62.4677 32.3403 62.7761 32.4389 62.9927 32.6362C63.2126 32.83 63.3227 33.1008 63.3227 33.4485C63.3227 33.6725 63.2727 33.868 63.1727 34.0352C63.076 34.199 62.9343 34.326 62.7478 34.4163C62.5644 34.5032 62.3378 34.5467 62.0679 34.5467L62.1079 34.4563H62.3478C62.4912 34.4563 62.6178 34.4914 62.7277 34.5616C62.8377 34.6286 62.9293 34.7322 63.0027 34.8725L63.5526 35.8754H62.5428L61.9329 34.7521C61.9062 34.702 61.8746 34.6636 61.8379 34.6368C61.8012 34.6101 61.7596 34.59 61.7129 34.5767C61.6695 34.5634 61.6212 34.5566 61.5679 34.5566H61.293V35.8754H60.3731ZM61.293 33.9048H61.9029C62.0796 33.9048 62.2146 33.8696 62.3079 33.7994C62.4011 33.7292 62.4479 33.6206 62.4479 33.4735C62.4479 33.3332 62.4011 33.2278 62.3079 33.1576C62.2146 33.0841 62.0796 33.0473 61.9029 33.0473H61.293V33.9048ZM64.8811 35.8754V34.0702L65.0711 34.5767L63.5262 32.3403H64.581L65.446 33.624H65.266L66.1309 32.3403H67.1557L65.6159 34.5767L65.8009 34.0702V35.8754H64.8811ZM68.3882 35.8754V33.0924H67.2684V32.3403H70.4279V33.0924H69.3081V35.8754H68.3882ZM70.9679 35.8754V32.3403H71.8878V33.7042H73.3426V32.3403H74.2574V35.8754H73.3426V34.4614H71.8878V35.8754H70.9679ZM75.0902 35.8754V32.3403H76.0101V35.8754H75.0902ZM76.8398 35.8754V32.3403H77.5148L79.2745 34.5416H79.1345V32.3403H79.9844V35.8754H79.3145L77.5548 33.669H77.6948V35.8754H76.8398ZM82.6204 35.9306C82.217 35.9306 81.8738 35.8553 81.5905 35.7048C81.3105 35.5545 81.0973 35.3439 80.9506 35.073C80.804 34.8022 80.7307 34.4863 80.7307 34.1254C80.7307 33.7509 80.8074 33.4268 80.9606 33.1526C81.1173 32.8751 81.3406 32.6612 81.6305 32.5109C81.9205 32.3604 82.2704 32.2852 82.6804 32.2852C82.8437 32.2852 83.0036 32.3002 83.1603 32.3302C83.3169 32.357 83.4602 32.3988 83.5902 32.4556C83.7235 32.5091 83.8369 32.5727 83.9302 32.6461L83.6501 33.3582C83.4936 33.258 83.3386 33.1861 83.1853 33.1427C83.032 33.0958 82.8654 33.0725 82.6854 33.0725C82.3488 33.0725 82.0971 33.1626 81.9305 33.3431C81.7671 33.5203 81.6854 33.7811 81.6854 34.1254C81.6854 34.4664 81.7689 34.7238 81.9354 34.8976C82.1021 35.0714 82.3488 35.1583 82.6754 35.1583C82.7753 35.1583 82.8836 35.1483 83.0004 35.1282C83.1203 35.1082 83.2403 35.0797 83.3603 35.043L83.1903 35.3889V34.5316H82.4854V33.8847H83.9402V35.6598C83.8168 35.7165 83.6818 35.765 83.5352 35.8052C83.3919 35.8453 83.2419 35.8754 83.0852 35.8954C82.932 35.9189 82.7771 35.9306 82.6204 35.9306Z" fill="#172235"/>
<path opacity="0.3" d="M24.2266 27.4844H83.8327" stroke="black"/>
<path d="M6.35428 24.0156L4.94141 27.4011C11.5918 31.5294 18.1612 29.1211 20.6144 27.4011L19.2017 24.0156C13.445 26.3295 8.23812 24.9798 6.35428 24.0156Z" fill="#D2E600"/>
<path d="M21.6094 23.0382V7.39233H26.3113V11.2162H25.9936C26.2477 9.94155 26.7984 8.96436 27.6456 8.28456C28.5139 7.58353 29.6578 7.17989 31.0768 7.07368L32.4747 6.97808L32.7605 11.025L30.0602 11.3118C28.8528 11.418 27.9528 11.7685 27.3597 12.3633C26.7879 12.9581 26.5019 13.8185 26.5019 14.9444V23.0382H21.6094ZM39.1148 23.3887C37.9709 23.3887 36.9438 23.1657 36.033 22.7196C35.1223 22.2735 34.4127 21.668 33.9044 20.9032C33.3961 20.1384 33.1419 19.278 33.1419 18.3221C33.1419 17.1749 33.4384 16.2722 34.0315 15.6136C34.6245 14.9338 35.5883 14.4558 36.9226 14.1796C38.2569 13.8822 40.0255 13.7335 42.2282 13.7335H43.9119V16.219H42.2598C41.4338 16.219 40.7349 16.2509 40.1631 16.3147C39.6124 16.3784 39.1571 16.4951 38.7971 16.6651C38.4368 16.8138 38.1722 17.005 38.0027 17.2387C37.8545 17.4723 37.7803 17.7697 37.7803 18.1309C37.7803 18.7257 37.9816 19.2143 38.384 19.5967C38.8076 19.979 39.4113 20.1702 40.1949 20.1702C40.8091 20.1702 41.3491 20.0322 41.8151 19.7561C42.3022 19.4587 42.6834 19.0656 42.9588 18.577C43.2341 18.0671 43.3719 17.4936 43.3719 16.8563V13.1918C43.3719 12.2571 43.1601 11.5985 42.7365 11.2162C42.3129 10.8125 41.5928 10.6107 40.5761 10.6107C39.729 10.6107 38.8287 10.7488 37.8757 11.025C36.9438 11.2799 36.0119 11.6729 35.0799 12.204L33.7773 8.9856C34.328 8.60321 34.9952 8.27394 35.7789 7.99778C36.5837 7.70037 37.4202 7.4773 38.2886 7.3286C39.1571 7.15865 39.9831 7.07368 40.7668 7.07368C42.3976 7.07368 43.7319 7.31798 44.7697 7.80659C45.8287 8.27394 46.623 9.00685 47.1525 10.0053C47.682 10.9825 47.9467 12.2465 47.9467 13.7972V23.0382H43.4671V19.8835H43.6896C43.5625 20.6058 43.2871 21.2325 42.8635 21.7636C42.4611 22.2735 41.9422 22.6771 41.3068 22.9745C40.6714 23.2507 39.9408 23.3887 39.1148 23.3887ZM59.3866 23.3887C58.137 23.3887 57.025 23.0807 56.0507 22.4647C55.0976 21.8274 54.4622 20.9882 54.1445 19.9472H54.4622V23.0382H49.7602V0.573173H54.5575V10.2921H54.1762C54.5151 9.33612 55.1612 8.56072 56.1142 7.96591C57.0673 7.37108 58.1582 7.07368 59.3866 7.07368C60.7633 7.07368 61.9598 7.40295 62.9764 8.06151C63.9931 8.72005 64.7874 9.65476 65.3592 10.8656C65.9311 12.0765 66.2171 13.5211 66.2171 15.1993C66.2171 16.8775 65.9311 18.3328 65.3592 19.5649C64.7874 20.797 63.9826 21.7424 62.9448 22.4009C61.9281 23.0595 60.7421 23.3887 59.3866 23.3887ZM57.9569 19.7878C58.9735 19.7878 59.7995 19.4162 60.4349 18.6727C61.0703 17.9079 61.388 16.7501 61.388 15.1993C61.388 13.6485 61.0703 12.512 60.4349 11.7897C59.7995 11.0462 58.9735 10.6745 57.9569 10.6745C56.9191 10.6745 56.0824 11.0462 55.447 11.7897C54.8116 12.512 54.4939 13.6485 54.4939 15.1993C54.4939 16.7501 54.8116 17.9079 55.447 18.6727C56.0824 19.4162 56.9191 19.7878 57.9569 19.7878ZM78.1878 23.3887C76.5358 23.3887 75.0214 23.1125 73.6447 22.5602C72.2892 22.0078 71.1243 21.2218 70.15 20.2022C69.1758 19.1825 68.4238 17.9609 67.8943 16.5376C67.386 15.1143 67.1319 13.5317 67.1319 11.7897C67.1319 10.0265 67.386 8.44388 67.8943 7.04181C68.4238 5.6185 69.1758 4.40762 70.15 3.40919C71.1243 2.38949 72.2892 1.60348 73.6447 1.05115C75.0214 0.498822 76.5358 0.222656 78.1878 0.222656C79.861 0.222656 81.3754 0.498822 82.7309 1.05115C84.0864 1.60348 85.2513 2.37887 86.2255 3.37732C87.1998 4.37575 87.9518 5.58663 88.4813 7.00995C89.0108 8.43326 89.2754 10.0159 89.2754 11.7579C89.2754 13.5211 89.0108 15.1143 88.4813 16.5376C87.9518 17.9609 87.1998 19.1825 86.2255 20.2022C85.2513 21.2218 84.0864 22.0078 82.7309 22.5602C81.3754 23.1125 79.861 23.3887 78.1878 23.3887ZM78.1878 19.1825C79.4586 19.1825 80.5282 18.8956 81.3966 18.3221C82.2649 17.7272 82.932 16.8775 83.398 15.7729C83.8851 14.647 84.1288 13.3193 84.1288 11.7897C84.1288 10.239 83.8958 8.91124 83.4298 7.80659C82.9639 6.70192 82.2861 5.8628 81.3966 5.28923C80.507 4.71566 79.4374 4.42886 78.1878 4.42886C76.9594 4.42886 75.9004 4.71566 75.0108 5.28923C74.1213 5.8628 73.4435 6.70192 72.9776 7.80659C72.5116 8.91124 72.2787 10.239 72.2787 11.7897C72.2787 13.3193 72.5116 14.647 72.9776 15.7729C73.4435 16.8775 74.1213 17.7272 75.0108 18.3221C75.9004 18.8956 76.9594 19.1825 78.1878 19.1825ZM90.9066 23.0382V7.39233H95.6084V10.3239H95.2591C95.7462 9.28301 96.4663 8.48637 97.4194 7.93405C98.3937 7.36046 99.495 7.07368 100.723 7.07368C101.973 7.07368 103 7.31798 103.805 7.80659C104.61 8.27394 105.214 8.99622 105.616 9.97341C106.018 10.9294 106.22 12.1509 106.22 13.6379V23.0382H101.422V13.861C101.422 13.1387 101.327 12.5545 101.136 12.1084C100.967 11.641 100.702 11.3118 100.342 11.1206C100.003 10.9081 99.5692 10.8019 99.0397 10.8019C98.362 10.8019 97.7689 10.9506 97.2606 11.248C96.7735 11.5242 96.3923 11.9278 96.1169 12.4589C95.8416 12.99 95.7038 13.6061 95.7038 14.3071V23.0382H90.9066Z" fill="#172235"/>
<path d="M13.0037 14.0674V13.3069L19.6267 8.80159V21.7798C13.7616 24.9109 6.58459 23.1885 3.30934 20.0989C0.735983 17.6713 0 14.1635 0 12.0898C0 7.37661 2.62126 1.90539 9.30548 0.455183C14.6529 -0.70498 17.7809 0.63096 18.9713 1.37804L17.7262 5.23429C15.0395 3.65225 5.27528 2.86119 5.27528 12.0898C5.27528 18.6486 11.4025 20.2636 14.8757 18.7146V14.0674H13.0037Z" fill="#172235"/>
</svg>
